<svg width="219" height="45" viewBox="0 0 219 45" fill="none" xmlns="http://www.w3.org/2000/svg">
<g filter="url(#filter0_d)">
<g filter="url(#filter1_d)">
<path fill-rule="evenodd" clip-rule="evenodd" d="M19.8736 19.9662L31 4L10.6154 15.37L16.1264 20.881L5 36.8472L25.3846 25.4772L19.8736 19.9662Z" fill="#FFC260"/>
</g>
<path d="M53.664 16.544C53.0453 15.9467 52.1813 15.456 51.072 15.072C49.9627 14.688 48.864 14.496 47.776 14.496C46.7093 14.496 45.952 14.6773 45.504 15.04C45.056 15.4027 44.832 15.8293 44.832 16.32C44.832 16.7893 45.0987 17.2053 45.632 17.568C46.1867 17.9307 47.1573 18.2507 48.544 18.528C50.9547 18.9973 52.7147 19.7333 53.824 20.736C54.9547 21.7173 55.52 23.0187 55.52 24.64C55.52 26.3467 54.8693 27.6587 53.568 28.576C52.288 29.4933 50.3893 29.952 47.872 29.952C46.8053 29.952 45.7387 29.7493 44.672 29.344C43.6267 28.9173 42.688 28.4053 41.856 27.808C41.0453 27.1893 40.4267 26.6133 40 26.08L41.568 24C41.9733 24.4267 42.5493 24.8533 43.296 25.28C44.064 25.7067 44.8747 26.0587 45.728 26.336C46.6027 26.6133 47.3707 26.752 48.032 26.752C49.12 26.752 49.9093 26.5813 50.4 26.24C50.912 25.8987 51.168 25.4187 51.168 24.8C51.168 24.1173 50.8053 23.5627 50.08 23.136C49.376 22.7093 48.2667 22.336 46.752 22.016C44.5547 21.568 42.976 20.8747 42.016 19.936C41.056 18.9973 40.576 17.8773 40.576 16.576C40.576 15.104 41.2053 13.888 42.464 12.928C43.7227 11.9467 45.5147 11.456 47.84 11.456C48.928 11.456 49.952 11.6053 50.912 11.904C51.8933 12.1813 52.736 12.544 53.44 12.992C54.1653 13.44 54.688 13.888 55.008 14.336L53.664 16.544Z" fill="white"/>
<path d="M72.1478 29.92C71.6144 29.4933 71.1984 29.088 70.8998 28.704C70.6224 28.2987 70.3877 27.8187 70.1957 27.264C69.8117 27.9253 69.2677 28.4587 68.5637 28.864C67.8597 29.248 67.0704 29.5253 66.1957 29.696C65.3424 29.8667 64.4677 29.952 63.5717 29.952C61.7584 29.952 60.3931 29.536 59.4757 28.704C58.5584 27.872 58.0784 26.7093 58.0357 25.216V25.088C58.0357 23.3813 58.5797 22.0373 59.6677 21.056C60.7557 20.0747 62.2704 19.3707 64.2118 18.944C65.5344 18.6453 66.6438 18.3253 67.5398 17.984C68.4571 17.6213 68.9158 17.216 68.9158 16.768C68.9158 15.3387 67.7957 14.624 65.5557 14.624C64.4251 14.624 63.3264 14.848 62.2597 15.296C61.1931 15.7227 60.3184 16.2347 59.6357 16.832L58.3557 14.528C59.1024 13.5467 60.1264 12.7893 61.4277 12.256C62.7504 11.7227 64.2437 11.456 65.9077 11.456C68.3824 11.456 70.2384 11.9147 71.4757 12.832C72.7344 13.728 73.3638 15.1467 73.3638 17.088V24.352C73.3638 25.184 73.5238 26.0053 73.8438 26.816C74.1638 27.6267 74.6224 28.3307 75.2198 28.928L72.1478 29.92ZM62.4517 24.768C62.4731 25.344 62.6437 25.8347 62.9637 26.24C63.2837 26.6453 63.7637 26.848 64.4037 26.848C65.3424 26.848 66.2597 26.5813 67.1557 26.048C68.0517 25.5147 68.6704 24.8427 69.0117 24.032C69.1184 23.7973 69.1824 23.5093 69.2037 23.168C69.2464 22.8053 69.2677 22.432 69.2677 22.048C69.2677 21.4933 69.2464 20.992 69.2037 20.544C69.1611 20.096 69.1397 19.872 69.1397 19.872C68.6704 20.2347 68.0624 20.544 67.3158 20.8C66.5904 21.056 65.8224 21.3013 65.0117 21.536C64.2224 21.7493 63.5931 22.1013 63.1237 22.592C62.6757 23.0827 62.4517 23.7333 62.4517 24.544V24.768Z" fill="white"/>
<path d="M90.2778 36.384V28.096C89.6164 28.7787 88.8591 29.2587 88.0058 29.536C87.1738 29.8133 86.3204 29.952 85.4458 29.952C83.8671 29.952 82.4591 29.6107 81.2218 28.928C80.0058 28.224 79.0458 27.1893 78.3418 25.824C77.6378 24.4373 77.2858 22.7413 77.2858 20.736C77.2858 18.7093 77.6591 17.0133 78.4058 15.648C79.1524 14.2613 80.1338 13.216 81.3498 12.512C82.5871 11.808 83.9311 11.456 85.3818 11.456C86.5124 11.456 87.4618 11.6053 88.2298 11.904C88.9978 12.2027 89.6484 12.7253 90.1818 13.472V11.328L94.7578 11.808L93.9897 35.68L90.2778 36.384ZM90.3097 17.152C89.9684 16.4693 89.4671 15.872 88.8058 15.36C88.1444 14.8267 87.3444 14.56 86.4058 14.56C85.5951 14.56 84.8058 14.7627 84.0378 15.168C83.2698 15.552 82.6298 16.2027 82.1178 17.12C81.6271 18.016 81.3818 19.232 81.3818 20.768C81.3818 22.2827 81.6164 23.488 82.0858 24.384C82.5764 25.2587 83.2058 25.888 83.9738 26.272C84.7631 26.656 85.5844 26.848 86.4378 26.848C87.1631 26.848 87.8138 26.6667 88.3898 26.304C88.9658 25.92 89.4244 25.408 89.7658 24.768C90.1284 24.128 90.3097 23.4347 90.3097 22.688V17.152Z" fill="white"/>
<path d="M107.502 29.952C105.027 29.952 103.235 29.4613 102.126 28.48C101.016 27.4987 100.462 26.08 100.462 24.224V14.816H98.0298L97.3898 12.352L100.462 12.032V6.272L104.974 6.912L104.814 11.584L108.014 11.264V14.816H104.686L104.366 23.648V23.968C104.366 25.0133 104.632 25.8453 105.166 26.464C105.72 27.0613 106.712 27.36 108.142 27.36L107.502 29.952Z" fill="white"/>
<path d="M124.898 29.92C124.364 29.4933 123.948 29.088 123.65 28.704C123.372 28.2987 123.138 27.8187 122.946 27.264C122.562 27.9253 122.018 28.4587 121.314 28.864C120.61 29.248 119.82 29.5253 118.946 29.696C118.092 29.8667 117.218 29.952 116.322 29.952C114.508 29.952 113.143 29.536 112.226 28.704C111.308 27.872 110.828 26.7093 110.786 25.216V25.088C110.786 23.3813 111.33 22.0373 112.418 21.056C113.506 20.0747 115.02 19.3707 116.962 18.944C118.284 18.6453 119.394 18.3253 120.29 17.984C121.207 17.6213 121.666 17.216 121.666 16.768C121.666 15.3387 120.546 14.624 118.306 14.624C117.175 14.624 116.076 14.848 115.01 15.296C113.943 15.7227 113.068 16.2347 112.386 16.832L111.106 14.528C111.852 13.5467 112.876 12.7893 114.178 12.256C115.5 11.7227 116.994 11.456 118.658 11.456C121.132 11.456 122.988 11.9147 124.226 12.832C125.484 13.728 126.114 15.1467 126.114 17.088V24.352C126.114 25.184 126.274 26.0053 126.594 26.816C126.914 27.6267 127.372 28.3307 127.97 28.928L124.898 29.92ZM115.202 24.768C115.223 25.344 115.394 25.8347 115.714 26.24C116.034 26.6453 116.514 26.848 117.154 26.848C118.092 26.848 119.01 26.5813 119.906 26.048C120.802 25.5147 121.42 24.8427 121.762 24.032C121.868 23.7973 121.932 23.5093 121.954 23.168C121.996 22.8053 122.018 22.432 122.018 22.048C122.018 21.4933 121.996 20.992 121.954 20.544C121.911 20.096 121.89 19.872 121.89 19.872C121.42 20.2347 120.812 20.544 120.066 20.8C119.34 21.056 118.572 21.3013 117.762 21.536C116.972 21.7493 116.343 22.1013 115.874 22.592C115.426 23.0827 115.202 23.7333 115.202 24.544V24.768Z" fill="white"/>
<path d="M142.772 30.016L136.692 21.568L135.476 22.72V29.6L131.764 30.048L131.124 4L135.476 4.64V19.2L141.652 11.296L146.42 12.288L138.58 19.776L147.188 29.152L142.772 30.016Z" fill="white"/>
<path d="M162.554 29.92C162.021 29.4933 161.605 29.088 161.306 28.704C161.029 28.2987 160.794 27.8187 160.602 27.264C160.218 27.9253 159.674 28.4587 158.97 28.864C158.266 29.248 157.477 29.5253 156.602 29.696C155.749 29.8667 154.874 29.952 153.978 29.952C152.165 29.952 150.799 29.536 149.882 28.704C148.965 27.872 148.485 26.7093 148.442 25.216V25.088C148.442 23.3813 148.986 22.0373 150.074 21.056C151.162 20.0747 152.677 19.3707 154.618 18.944C155.941 18.6453 157.05 18.3253 157.946 17.984C158.863 17.6213 159.322 17.216 159.322 16.768C159.322 15.3387 158.202 14.624 155.962 14.624C154.831 14.624 153.733 14.848 152.666 15.296C151.599 15.7227 150.725 16.2347 150.042 16.832L148.762 14.528C149.509 13.5467 150.533 12.7893 151.834 12.256C153.157 11.7227 154.65 11.456 156.314 11.456C158.789 11.456 160.645 11.9147 161.882 12.832C163.141 13.728 163.77 15.1467 163.77 17.088V24.352C163.77 25.184 163.93 26.0053 164.25 26.816C164.57 27.6267 165.029 28.3307 165.626 28.928L162.554 29.92ZM152.858 24.768C152.879 25.344 153.05 25.8347 153.37 26.24C153.69 26.6453 154.17 26.848 154.81 26.848C155.749 26.848 156.666 26.5813 157.562 26.048C158.458 25.5147 159.077 24.8427 159.418 24.032C159.525 23.7973 159.589 23.5093 159.61 23.168C159.653 22.8053 159.674 22.432 159.674 22.048C159.674 21.4933 159.653 20.992 159.61 20.544C159.567 20.096 159.546 19.872 159.546 19.872C159.077 20.2347 158.469 20.544 157.722 20.8C156.997 21.056 156.229 21.3013 155.418 21.536C154.629 21.7493 153.999 22.1013 153.53 22.592C153.082 23.0827 152.858 23.7333 152.858 24.544V24.768Z" fill="white"/>
</g>
<defs>
<filter id="filter0_d" x="-4" y="0" width="227" height="48" filterUnits="userSpaceOnUse" color-interpolation-filters="sRGB">
<feFlood flood-opacity="0" result="BackgroundImageFix"/>
<feColorMatrix in="SourceAlpha" type="matrix" values="0 0 0 0 0 0 0 0 0 0 0 0 0 0 0 0 0 0 127 0"/>
<feOffset dy="4"/>
<feGaussianBlur stdDeviation="2"/>
<feColorMatrix type="matrix" values="0 0 0 0 0 0 0 0 0 0 0 0 0 0 0 0 0 0 0.25 0"/>
<feBlend mode="normal" in2="BackgroundImageFix" result="effect1_dropShadow"/>
<feBlend mode="normal" in="SourceGraphic" in2="effect1_dropShadow" result="shape"/>
</filter>
<filter id="filter1_d" x="5" y="4" width="27.3139" height="34.1611" filterUnits="userSpaceOnUse" color-interpolation-filters="sRGB">
<feFlood flood-opacity="0" result="BackgroundImageFix"/>
<feColorMatrix in="SourceAlpha" type="matrix" values="0 0 0 0 0 0 0 0 0 0 0 0 0 0 0 0 0 0 127 0"/>
<feOffset dx="1.31389" dy="1.31389"/>
<feColorMatrix type="matrix" values="0 0 0 0 0 0 0 0 0 0 0 0 0 0 0 0 0 0 0.25 0"/>
<feBlend mode="normal" in2="BackgroundImageFix" result="effect1_dropShadow"/>
<feBlend mode="normal" in="SourceGraphic" in2="effect1_dropShadow" result="shape"/>
</filter>
</defs>
</svg>
